<svg id="Layer_1" data-name="Layer 1" xmlns="http://www.w3.org/2000/svg" viewBox="0 0 1000 1000"><defs><style>.cls-1{fill:#fff;}</style></defs><title>Untitled-1</title><path class="cls-1" d="M319.11,979.5c-5.12-4.3-9.06-7.23-12.56-10.62-24.34-23.59-48-47.88-73.09-70.65-11.51-10.46-11.14-17.18-.64-28q108.95-112.51,217-225.93c42.28-44.1,84.09-88.68,127.12-132,11.28-11.37,9.61-17.58-.46-28Q405.26,306.69,234.77,128.49c-15.13-15.75-15.27-15.75.27-30.91,23.86-23.26,48.32-45.94,71.49-69.86,9.91-10.22,15.57-9.23,25,.67Q530,236.32,729.16,443.58c12.68,13.23,24.42,27.55,38.23,39.47,14.1,12.18,10.54,20.17-.86,31.88C704.53,578.6,643.29,643,581.8,707.16Q457.27,837.08,332.71,967C328.65,971.2,324.07,975,319.11,979.5Z"/></svg>