<svg id="Layer_1" data-name="Layer 1" xmlns="http://www.w3.org/2000/svg" viewBox="0 0 1000 1000"><defs><style>.cls-1{fill:#fff;}</style></defs><title>Untitled-1</title><path class="cls-1" d="M680.89,979.5c5.12-4.3,9.06-7.23,12.56-10.62,24.34-23.59,48-47.88,73.09-70.65,11.51-10.46,11.14-17.18.64-28q-108.95-112.51-217-225.93c-42.28-44.1-84.09-88.68-127.12-132-11.28-11.37-9.61-17.58.46-28Q594.74,306.69,765.23,128.49c15.13-15.75,15.27-15.75-.27-30.91-23.86-23.26-48.32-45.94-71.49-69.86-9.91-10.22-15.57-9.23-25,.67Q470,236.32,270.84,443.58c-12.68,13.23-24.42,27.55-38.23,39.47-14.1,12.18-10.54,20.17.86,31.88C295.47,578.6,356.71,643,418.2,707.16Q542.73,837.08,667.29,967C671.35,971.2,675.93,975,680.89,979.5Z"/></svg>