<svg id="Layer_1" data-name="Layer 1" xmlns="http://www.w3.org/2000/svg" viewBox="0 0 1000 1000"><defs><style>.cls-1{fill:#fff;}</style></defs><title>Untitled-1</title><path class="cls-1" d="M500.49,1000C224.86,1000-.66,774.57,0,499.77.67,224.43,226.76-1,501.26,0,776.45,1,1000.34,225.71,1000,500.57,999.65,775.84,775.43,1000,500.49,1000Zm.59-959.95C247.94,38.76,40.09,245.31,40.17,500c.08,256.89,206.49,451.38,442.47,460.42C738.38,970.18,959.37,764,960.28,501.74,961.16,247.91,755.94,41.35,501.08,40.05Z"/><path class="cls-1" d="M479.24,268.13l27.49,29.29L327.18,479.66H803.75v39.55H332.11L511.35,700.59l-30.64,29.76L349.45,598.72c-27.13-27.21-54.36-54.32-81.36-81.66-11.48-11.62-12-22.52-.75-34Q372.91,375.61,479.24,268.13Z"/></svg>