<svg id="Layer_1" data-name="Layer 1" xmlns="http://www.w3.org/2000/svg" viewBox="0 0 1000 1000"><defs><style>.cls-1{fill:#fff;}</style></defs><title>Untitled-1</title><path class="cls-1" d="M0,500.57C-.34,225.71,223.55,1,498.74,0,773.24-1,999.33,224.43,1000,499.77c.66,274.8-224.86,500.2-500.49,500.23C224.57,1000,.35,775.84,0,500.57Zm39.72,1.17C40.63,764,261.62,970.18,517.36,960.39c236-9,442.39-203.53,442.47-460.42.08-254.66-207.77-461.21-460.91-459.92C244.06,41.35,38.84,247.91,39.72,501.74Z"/><path class="cls-1" d="M520.76,268.13l-27.49,29.29L672.82,479.66H196.25v39.55H667.89L488.65,700.59l30.64,29.76L650.55,598.72c27.13-27.21,54.36-54.32,81.36-81.66,11.48-11.62,12-22.52.75-34Q627.09,375.61,520.76,268.13Z"/></svg>